<svg xmlns="http://www.w3.org/2000/svg" width="166" height="155" viewBox="0 0 166 155"><defs><style>.a{fill:#fff;}</style></defs><g transform="translate(25.455 0)"><path class="a" d="M138.242,48.26a14.264,14.264,0,0,0-13.163-12.2,15.944,15.944,0,0,0-14.653-10.241,15.318,15.318,0,0,0-6.083,1.269A15.242,15.242,0,0,0,94.995,23.9,16,16,0,0,0,79.862,35.51,13.075,13.075,0,0,0,69.357,48.368a12.654,12.654,0,0,0-9.525,12.226v4.565H52.782a7.039,7.039,0,0,0-7.049,7.023V93.249a7.039,7.039,0,0,0,7.049,7.023h7.049v4.565a12.676,12.676,0,0,0,12.69,12.641H96.841V124.5H77.1a3.511,3.511,0,1,0,0,7.023h53.576a3.511,3.511,0,1,0,0-7.023H110.941v-7.023h24.552a12.674,12.674,0,0,0,12.689-12.641V60.594A12.663,12.663,0,0,0,138.242,48.26ZM82.01,42.342c.092,0,.182,0,.269.01l3.6.028.369-3.1c.567-4.765,4.326-8.357,8.745-8.357a8.4,8.4,0,0,1,6.225,2.812l2.048,2.23,2.518-1.686c.189-.127.382-.249.594-.368a8.149,8.149,0,0,1,4.045-1.072,9.065,9.065,0,0,1,8.623,7.59l.684,3.5,3.5-.737a6.036,6.036,0,0,1,1.246-.127,7.014,7.014,0,0,1,6.449,4.886H76.425A5.866,5.866,0,0,1,82.01,42.342ZM54.545,93.249a1.76,1.76,0,0,1-1.763-1.756V73.938a1.76,1.76,0,0,1,1.763-1.756h5.287V93.249Zm86.587,11.587a5.627,5.627,0,0,1-5.639,5.618H72.522a5.627,5.627,0,0,1-5.639-5.618V60.594a5.627,5.627,0,0,1,5.639-5.618h62.971a5.627,5.627,0,0,1,5.639,5.618Z" transform="translate(-45.733 -23.901)"/><path class="a" d="M122.572,55.389a2.8,2.8,0,0,0-.543.057,64.186,64.186,0,0,1-12.16,1.148c-8.106-.206-18.337-6.7-29.616-6.7a41.072,41.072,0,0,0-13.7,2.484,2.842,2.842,0,0,0-1.8,2.66V88.665a2.835,2.835,0,0,0,2.82,2.851h54.984a2.835,2.835,0,0,0,2.82-2.851V58.248A2.838,2.838,0,0,0,122.572,55.389ZM84.088,79.366,80.846,82.6l-9.727-9.69,9.727-9.69,3.243,3.229L77.6,72.907Zm8.592,6.276H87.415L95.85,60.171h5.266ZM107.719,82.6l-3.243-3.23,6.486-6.46-6.486-6.461,3.243-3.229,9.727,9.69Z" transform="translate(-36.907 -11.985)"/></g><g transform="translate(0 124.133)"><path class="a" d="M32.132,135.937V115.89H28.346v-3.543H40.672v3.543H36.944v20.047Z" transform="translate(-28.346 -107.485)"/><path class="a" d="M38.1,135.937V112.348H48.413v3.328h-5.5v6.247h4.271v3.357H42.916v7.386h5.556v3.271Z" transform="translate(-23.819 -107.485)"/><path class="a" d="M53.54,136.344a8.757,8.757,0,0,1-3.313-.562,4.888,4.888,0,0,1-2.156-1.644,7,7,0,0,1-1.129-2.476,13.679,13.679,0,0,1-.343-3.244v-8.323a14.227,14.227,0,0,1,.343-3.33,6.85,6.85,0,0,1,1.129-2.475,4.794,4.794,0,0,1,2.149-1.609,9.033,9.033,0,0,1,3.32-.54,9.261,9.261,0,0,1,3.164.477,4.6,4.6,0,0,1,2.057,1.4,5.817,5.817,0,0,1,1.085,2.126,10.5,10.5,0,0,1,.337,2.81V121h-4.7v-2.774c0-.1,0-.274-.015-.512a2.925,2.925,0,0,0-.05-.5c-.023-.1-.057-.245-.1-.435a1.175,1.175,0,0,0-.157-.413c-.063-.085-.141-.19-.236-.312a.815.815,0,0,0-.337-.264,3.2,3.2,0,0,0-.457-.141,2.393,2.393,0,0,0-.578-.064,2.165,2.165,0,0,0-.95.191,1.639,1.639,0,0,0-.606.477,2.046,2.046,0,0,0-.329.776,5.742,5.742,0,0,0-.142.91q-.029.42-.029,1.06v10.543a5.569,5.569,0,0,0,.436,2.532,1.67,1.67,0,0,0,1.621.811,2.544,2.544,0,0,0,.8-.114,1.138,1.138,0,0,0,.55-.376,2.951,2.951,0,0,0,.328-.512,2.149,2.149,0,0,0,.171-.7c.034-.3.056-.56.064-.769s.015-.5.015-.868v-2.306h4.7v1.992a11.443,11.443,0,0,1-.322,2.867,6.444,6.444,0,0,1-1.05,2.22,4.527,4.527,0,0,1-2.057,1.508A8.848,8.848,0,0,1,53.54,136.344Z" transform="translate(-19.876 -107.578)"/><path class="a" d="M57.906,135.937V112.348h4.827v9.674H66.9v-9.674h4.827v23.589H66.9V125.451H62.733v10.486Z" transform="translate(-14.629 -107.485)"/><path class="a" d="M79,139.808a6.488,6.488,0,0,1-4.891-1.927,6.913,6.913,0,0,1-1.861-5.017,11.041,11.041,0,0,1,1.206-5.01,14.758,14.758,0,0,1,3.041-4.141q-.29-.6-.99-1.908t-1.061-2.052a11.734,11.734,0,0,1-.69-1.881,7.865,7.865,0,0,1-.326-2.17,6.814,6.814,0,0,1,1.742-4.791,6.025,6.025,0,0,1,4.664-1.9,6.927,6.927,0,0,1,4.774,1.673,5.72,5.72,0,0,1,1.889,4.511,7.556,7.556,0,0,1-.155,1.52A13.2,13.2,0,0,1,86,118.054a6.633,6.633,0,0,1-.608,1.311q-.428.733-.681,1.13a11.185,11.185,0,0,1-.862,1.111q-.608.716-.826.969c-.146.168-.445.492-.9.967s-.723.757-.808.841l3.667,6.509a8.875,8.875,0,0,0,.726-2.567,31.379,31.379,0,0,0,.381-3.473H90.3a18.8,18.8,0,0,1-2.4,9.222,3.207,3.207,0,0,0,1.07.841,3.7,3.7,0,0,0,1.452.425v4.431a5.344,5.344,0,0,1-.908.108,3.252,3.252,0,0,1-.726-.082c-.242-.054-.457-.111-.644-.171a3.426,3.426,0,0,1-.662-.316c-.255-.152-.448-.268-.581-.353a5.79,5.79,0,0,1-.581-.452q-.38-.326-.5-.435c-.078-.072-.253-.232-.526-.478s-.427-.389-.463-.426a6.811,6.811,0,0,1-2.5,1.944A7.859,7.859,0,0,1,79,139.808Zm.091-3.942a3.626,3.626,0,0,0,3-1.537q-3.34-6.239-3.577-6.817a9.286,9.286,0,0,0-1.561,5.026,4.307,4.307,0,0,0,.608,2.405A1.8,1.8,0,0,0,79.086,135.866Zm.564-14.43a19.127,19.127,0,0,0,1.487-3.165,9.535,9.535,0,0,0,.709-3.292,1.833,1.833,0,0,0-.518-1.374,1.8,1.8,0,0,0-1.316-.506,1.534,1.534,0,0,0-1.306.678,2.875,2.875,0,0,0-.49,1.727A8.377,8.377,0,0,0,78.4,117.1q.182.921.372,1.555c.127.423.3.961.508,1.619S79.613,121.315,79.65,121.436Zm18.532,18.372a6.49,6.49,0,0,1-4.893-1.927,6.919,6.919,0,0,1-1.861-5.017,11.025,11.025,0,0,1,1.208-5.01,14.731,14.731,0,0,1,3.041-4.141q-.292-.6-.99-1.908t-1.063-2.052a11.732,11.732,0,0,1-.69-1.881,7.921,7.921,0,0,1-.326-2.17,6.814,6.814,0,0,1,1.742-4.791,6.026,6.026,0,0,1,4.666-1.9,6.932,6.932,0,0,1,4.774,1.673,5.724,5.724,0,0,1,1.887,4.511,7.661,7.661,0,0,1-.154,1.52,13.172,13.172,0,0,1-.337,1.337,6.55,6.55,0,0,1-.608,1.311q-.426.733-.681,1.13a11.183,11.183,0,0,1-.862,1.111q-.608.716-.826.969c-.145.168-.445.492-.9.967s-.723.757-.807.841l3.666,6.509a8.829,8.829,0,0,0,.726-2.567,31.389,31.389,0,0,0,.381-3.473h4.212a18.8,18.8,0,0,1-2.4,9.222,3.214,3.214,0,0,0,1.072.841,3.7,3.7,0,0,0,1.452.425v4.431a5.36,5.36,0,0,1-.908.108,3.233,3.233,0,0,1-.726-.082c-.242-.054-.457-.111-.644-.171a3.474,3.474,0,0,1-.663-.316c-.253-.152-.448-.268-.581-.353a5.649,5.649,0,0,1-.58-.452q-.382-.326-.5-.435l-.527-.478c-.272-.248-.426-.389-.463-.426a6.811,6.811,0,0,1-2.5,1.944A7.852,7.852,0,0,1,98.181,139.808Zm.091-3.942a3.625,3.625,0,0,0,2.994-1.537q-3.34-6.239-3.575-6.817a9.275,9.275,0,0,0-1.562,5.026,4.3,4.3,0,0,0,.609,2.405A1.793,1.793,0,0,0,98.272,135.866Zm.562-14.43a19.242,19.242,0,0,0,1.489-3.165,9.563,9.563,0,0,0,.707-3.292,1.838,1.838,0,0,0-.517-1.374A1.807,1.807,0,0,0,99.2,113.1a1.535,1.535,0,0,0-1.307.678,2.875,2.875,0,0,0-.49,1.727,8.5,8.5,0,0,0,.182,1.591q.182.921.373,1.555c.126.423.3.961.508,1.619S98.8,121.315,98.834,121.436Z" transform="translate(-7.977 -109.013)"/><path class="a" d="M103.159,135.937V112.348h6a15.761,15.761,0,0,1,2.35.156,8.34,8.34,0,0,1,2,.562,4.567,4.567,0,0,1,1.593,1.082,4.71,4.71,0,0,1,.985,1.757,7.862,7.862,0,0,1,.343,2.433v.114q-.057,4.253-3.471,4.809,4.142.641,4.186,5.748v.157A6.741,6.741,0,0,1,115.4,134.2a7.117,7.117,0,0,1-5.169,1.735Zm4.814-14.071h1.157a3.084,3.084,0,0,0,2.442-.782,3.956,3.956,0,0,0,.657-2.548,2.684,2.684,0,0,0-.851-2.277,4.48,4.48,0,0,0-2.678-.64h-.728Zm0,10.7h1.313a3.133,3.133,0,0,0,2.521-.853,4.32,4.32,0,0,0,.707-2.761,4.491,4.491,0,0,0-.764-2.945,3.3,3.3,0,0,0-2.607-.882h-1.17Z" transform="translate(6.369 -107.485)"/><path class="a" d="M114.612,135.937V112.348h10.311v3.328h-5.5v6.247h4.269v3.357h-4.269v7.386h5.555v3.271Z" transform="translate(11.684 -107.485)"/><path class="a" d="M123.353,135.937V112.348h10.311v3.328h-5.5v6.247h4.271v3.357h-4.271v7.386h5.556v3.271Z" transform="translate(15.74 -107.485)"/><path class="a" d="M132.094,135.937V112.348h5.983a15.568,15.568,0,0,1,3.243.292,6.922,6.922,0,0,1,2.407.989,4.233,4.233,0,0,1,1.571,1.934,7.869,7.869,0,0,1,.521,3.045,8.866,8.866,0,0,1-.65,3.686,4.328,4.328,0,0,1-2.236,2.134l3.271,11.51h-4.913l-2.713-10.642h-1.672v10.642Zm4.812-13.545h1.2a3.18,3.18,0,0,0,2.471-.818,3.872,3.872,0,0,0,.728-2.611,4.123,4.123,0,0,0-.635-2.554,2.774,2.774,0,0,0-2.293-.8h-1.471Z" transform="translate(19.796 -107.485)"/></g></svg>